<svg width="2100px" height="2970px" version="1.1" xmlns="http://www.w3.org/2000/svg" xmlns:xlink="http://www.w3.org/1999/xlink" overflow="visible" id="l19nj5e9">
   <desc>Engraved by Verovio 5.3.2-4f22bb0</desc>
   <defs>
      <g id="E0A3-l19nj5e9">
         <path transform="scale(1,-1)" d="M278 64c0 22 -17 39 -43 39c-12 0 -26 -3 -41 -10c-85 -43 -165 -94 -165 -156c5 -25 15 -32 49 -32c67 11 200 95 200 159zM0 -36c0 68 73 174 200 174c66 0 114 -39 114 -97c0 -84 -106 -173 -218 -173c-64 0 -96 32 -96 96z" />
      </g>
      <g id="E0A4-l19nj5e9">
         <path transform="scale(1,-1)" d="M0 -39c0 68 73 172 200 172c66 0 114 -37 114 -95c0 -84 -106 -171 -218 -171c-64 0 -96 30 -96 94z" />
      </g>
      <g id="E050-l19nj5e9">
         <path transform="scale(1,-1)" d="M441 -245c-23 -4 -48 -6 -76 -6c-59 0 -102 7 -130 20c-88 42 -150 93 -187 154c-26 44 -43 103 -48 176c0 6 -1 13 -1 19c0 54 15 111 45 170c29 57 65 106 110 148s96 85 153 127c-3 16 -8 46 -13 92c-4 43 -5 73 -5 89c0 117 16 172 69 257c34 54 64 82 89 82 c21 0 43 -30 69 -92s39 -115 41 -159v-15c0 -109 -21 -162 -67 -241c-13 -20 -63 -90 -98 -118c-13 -9 -25 -19 -37 -29l31 -181c8 1 18 2 28 2c58 0 102 -12 133 -35c59 -43 92 -104 98 -184c1 -7 1 -15 1 -22c0 -123 -87 -209 -181 -248c8 -57 17 -110 25 -162 c5 -31 6 -58 6 -80c0 -30 -5 -53 -14 -70c-35 -64 -88 -99 -158 -103c-5 0 -11 -1 -16 -1c-37 0 -72 10 -108 27c-50 24 -77 59 -80 105v11c0 29 7 55 20 76c18 28 45 42 79 44h6c49 0 93 -42 97 -87v-9c0 -51 -34 -86 -105 -106c17 -24 51 -36 102 -36c62 0 116 43 140 85 c9 16 13 41 13 74c0 20 -1 42 -5 67c-8 53 -18 106 -26 159zM461 939c-95 0 -135 -175 -135 -286c0 -24 2 -48 5 -71c50 39 92 82 127 128c40 53 60 100 60 140v8c-4 53 -22 81 -55 81h-2zM406 119l54 -326c73 25 110 78 110 161c0 7 0 15 -1 23c-7 95 -57 142 -151 142h-12 zM382 117c-72 -2 -128 -47 -128 -120v-7c2 -46 43 -99 75 -115c-3 -2 -7 -5 -10 -10c-70 33 -116 88 -123 172v11c0 68 44 126 88 159c23 17 49 29 78 36l-29 170c-21 -13 -52 -37 -92 -73c-50 -44 -86 -84 -109 -119c-45 -69 -67 -130 -67 -182v-13c5 -68 35 -127 93 -176 s125 -73 203 -73c25 0 50 3 75 9c-19 111 -36 221 -54 331z" />
      </g>
      <g id="E062-l19nj5e9">
         <path transform="scale(1,-1)" d="M582 -120c0 32 26 58 58 58s58 -26 58 -58s-26 -58 -58 -58s-58 26 -58 58zM582 120c0 32 26 58 58 58s58 -26 58 -58s-26 -58 -58 -58s-58 26 -58 58zM158 96c51 0 73 -14 88 -49l16 -39c0 -17 -2 -30 -7 -40c-3 -11 -10 -21 -19 -31c-17 -18 -49 -43 -84 -43 c-55 0 -77 13 -112 44c-24 21 -35 55 -35 100c0 46 14 81 32 112c30 52 71 79 137 93l36 6l26 2c154 0 235 -68 274 -182c11 -32 18 -68 18 -107c0 -103 -26 -182 -68 -250c-89 -145 -234 -230 -412 -288l-30 -5c-9 0 -14 3 -14 8c3 10 5 11 10 16c35 15 70 30 96 44l78 43 c96 57 162 136 197 258c9 33 17 60 22 100c3 22 5 35 6 39c-7 69 -16 115 -23 140s-4 22 -16 40c-8 12 -19 23 -31 34c-24 21 -62 44 -118 44c-48 0 -84 -8 -113 -28c-28 -19 -42 -44 -42 -73v-16c2 -5 3 -9 4 -11c24 22 52 39 84 39z" />
      </g>
      <g id="E262-l19nj5e9">
         <path transform="scale(1,-1)" d="M136 186v169h17v-164l44 14v-91l-44 -14v-165l44 12v-91l-44 -13v-155h-17v150l-76 -22v-155h-17v149l-43 -13v90l43 14v167l-43 -14v92l43 13v169h17v-163zM60 73v-167l76 22v168z" />
      </g>
      <g id="E08A-l19nj5e9">
         <path transform="scale(1,-1)" d="M340 179c-9 24 -56 41 -89 41c-46 0 -81 -28 -100 -58c-17 -28 -25 -78 -25 -150c0 -65 2 -111 8 -135c8 -31 18 -49 40 -67c20 -17 43 -25 70 -25c54 0 92 36 115 75c14 25 23 54 28 88h27c0 -63 -24 -105 -58 -141c-35 -38 -82 -56 -140 -56c-45 0 -83 13 -115 39 c-57 45 -101 130 -101 226c0 59 33 127 68 163c36 37 97 72 160 72c36 0 93 -21 121 -40c11 -8 23 -17 33 -30c19 -23 27 -48 27 -76c0 -51 -35 -88 -86 -88c-43 0 -76 27 -76 68c0 26 7 35 21 51c15 17 32 27 58 32c7 2 14 7 14 11z" />
      </g>
      <g id="E566-l19nj5e9">
         <path transform="scale(1,-1)" d="M162 167l-36 -115l-1 -10c0 -10 5 -16 16 -19c32 18 48 43 48 75c0 20 -9 43 -27 69zM432 225c0 -21 -11 -36 -31 -37c-15 0 -20 10 -23 25l3 14l2 11l1 9l-4 4c-1 -1 -2 -1 -3 -1c-23 -13 -36 -24 -47 -48l-12 -27c-18 -50 -31 -105 -47 -157h-60l58 214c0 7 -3 5 -5 9 c-7 0 -25 -8 -51 -28l-37 -28c20 -34 31 -67 31 -97c0 -12 -1 -21 -4 -28l-6 -15c-1 -3 -5 -10 -12 -19c-14 -18 -30 -26 -49 -26c-30 0 -67 18 -67 52c1 1 1 6 3 15l20 84c-9 -5 -21 -8 -36 -8c-21 0 -29 7 -40 19c-10 12 -16 27 -16 47c0 23 6 33 17 45s25 18 46 18 c19 0 39 -8 60 -25l34 117h63l-46 -158l38 31l32 20c21 10 35 13 62 15c16 0 24 -7 24 -21l-1 -10l-6 -24c21 37 44 55 70 55c23 0 39 -23 39 -47zM18 208c0 -27 17 -47 45 -47l3 -2l13 4l23 9l14 55c-17 15 -35 22 -55 22c-26 0 -43 -17 -43 -41z" />
      </g>
      <g id="E4A3-l19nj5e9">
         <path transform="scale(1,-1)" d="M0 -48c0 26 22 48 48 48s48 -22 48 -48s-22 -48 -48 -48s-48 22 -48 48z" />
      </g>
   </defs>
   <style type="text/css">#l19nj5e9 g.page-margin {font-family:Times,serif;}#l19nj5e9 g.ending, #l19nj5e9 g.fing, #l19nj5e9 g.reh, #l19nj5e9 g.tempo {font-weight:bold;}#l19nj5e9 g.dir, #l19nj5e9 g.dynam, #l19nj5e9 g.mNum {font-style:italic;}#l19nj5e9 g.label {font-weight:normal;}#l19nj5e9 path {stroke:currentColor}</style>
   <svg class="definition-scale" color="black" viewBox="0 0 21000 29700">
      <g class="page-margin" transform="translate(500, 500)">
         <g id="v3bpgbh" class="mdiv pageMilestone" />
         <g id="wtn72u" class="score pageMilestone" />
         <g id="zg3pbut" class="system">
            <path d="M1523 770 L1523 3290" stroke-width="27" />
            <g id="f1dxmf41" class="grpSym">
               <path d="M1438,3272 C1078,2732 1528,2210 1258,2030 C1591,2210 1141,2732 1438,3272" stroke-linecap="round" stroke-linejoin="round" stroke-width="18" />
               <path d="M1438,788 C1141,1328 1591,1850 1258,2030 C1528,1850 1078,1328 1438,788" stroke-linecap="round" stroke-linejoin="round" stroke-width="18" />
            </g>
            <g id="gh6l6a5" class="label">
               <text x="1105" y="2120" text-anchor="end" font-size="0px">
                  <tspan id="h19k1vdt" class="text">
                     <tspan font-size="405px">Piano</tspan>
                  </tspan>
               </text>
            </g>
            <g id="yhbsl03" class="section systemMilestone" />
            <g id="leeh8fz" class="measure">
               <g id="u1bb0tuc" class="staff">
                  <path d="M1510 770 L7344 770" stroke-width="13" />
                  <path d="M1510 950 L7344 950" stroke-width="13" />
                  <path d="M1510 1130 L7344 1130" stroke-width="13" />
                  <path d="M1510 1310 L7344 1310" stroke-width="13" />
                  <path d="M1510 1490 L7344 1490" stroke-width="13" />
                  <g id="pb8i62n" class="clef">
                     <use xlink:href="#E050-l19nj5e9" transform="translate(1627, 1310) scale(0.72, 0.72)" />
                  </g>
                  <g id="q1sur31n" class="keySig">
                     <g id="r1ybqcgf" class="keyAccid">
                        <use xlink:href="#E262-l19nj5e9" transform="translate(2308, 770) scale(0.72, 0.72)" />
                     </g>
                     <g id="shcrdrf" class="keyAccid">
                        <use xlink:href="#E262-l19nj5e9" transform="translate(2486, 1040) scale(0.72, 0.72)" />
                     </g>
                     <g id="t6hb73s" class="keyAccid">
                        <use xlink:href="#E262-l19nj5e9" transform="translate(2664, 680) scale(0.72, 0.72)" />
                     </g>
                     <g id="u1h7hzwj" class="keyAccid">
                        <use xlink:href="#E262-l19nj5e9" transform="translate(2842, 950) scale(0.72, 0.72)" />
                     </g>
                  </g>
                  <g id="v5hyoqx" class="meterSig">
                     <use xlink:href="#E08A-l19nj5e9" transform="translate(3163, 1130) scale(0.72, 0.72)" />
                  </g>
                  <g class="ledgerLines above cue">
                     <path d="M7045 590 L7285 590" stroke-width="16" />
                  </g>
                  <g id="wgj8qwy" class="layer">
                     <g id="xfggj11" class="note">
                        <g class="notehead">
                           <use xlink:href="#E0A3-l19nj5e9" transform="translate(3731, 680) scale(0.72, 0.72)" />
                        </g>
                        <g id="mixe56f" class="stem">
                           <path d="M3740 705 L3740 1310" stroke-width="18" />
                        </g>
                        <g id="y1waypqj" class="accid" />
                     </g>
                     <g id="zfx25hn" class="note">
                        <g class="notehead">
                           <use xlink:href="#E0A3-l19nj5e9" transform="translate(5531, 770) scale(0.72, 0.72)" />
                        </g>
                        <g id="n1t7t9o8" class="stem">
                           <path d="M5540 795 L5540 1400" stroke-width="18" />
                        </g>
                        <g id="a3ie8ud" class="accid" />
                     </g>
                     <g id="c1kyp1ws" class="beam">
                        <polygon stroke-opacity="1" fill-opacity="1" points="6524,320 7250,140 7250,207 6524,387" />
                        <polygon stroke-opacity="1" fill-opacity="1" points="6524,420 6769,360 6769,427 6524,487" />
                        <polygon stroke-opacity="1" fill-opacity="1" points="6769,360 7005,300 7005,367 6769,427" />
                        <polygon stroke-opacity="1" fill-opacity="1" points="7005,300 7250,240 7250,307 7005,367" />
                        <g id="d1eyoooy" class="note">
                           <g class="notehead">
                              <use xlink:href="#E0A4-l19nj5e9" transform="translate(6373, 860) scale(0.54, 0.54)" />
                           </g>
                           <g id="o186unp8" class="stem">
                              <path d="M6533 839 L6533 338" stroke-width="18" />
                           </g>
                           <g id="f12ecyql" class="artic">
                              <use xlink:href="#E4A3-l19nj5e9" transform="translate(6432, 1015) scale(0.54, 0.54)" />
                           </g>
                        </g>
                        <g id="gjwwkjn" class="note">
                           <g class="notehead">
                              <use xlink:href="#E0A4-l19nj5e9" transform="translate(6609, 770) scale(0.54, 0.54)" />
                           </g>
                           <g id="p1vt5nji" class="stem">
                              <path d="M6769 749 L6769 278" stroke-width="18" />
                           </g>
                           <g id="hzub3xf" class="accid" />
                           <g id="izv1mc9" class="artic">
                              <use xlink:href="#E4A3-l19nj5e9" transform="translate(6668, 1015) scale(0.54, 0.54)" />
                           </g>
                        </g>
                        <g id="j14qhuvu" class="note">
                           <g class="notehead">
                              <use xlink:href="#E0A4-l19nj5e9" transform="translate(6845, 680) scale(0.54, 0.54)" />
                           </g>
                           <g id="qqy4i76" class="stem">
                              <path d="M7005 659 L7005 218" stroke-width="18" />
                           </g>
                           <g id="k1dict13" class="accid" />
                           <g id="lcz237t" class="artic">
                              <use xlink:href="#E4A3-l19nj5e9" transform="translate(6904, 835) scale(0.54, 0.54)" />
                           </g>
                        </g>
                        <g id="mwxt00x" class="note">
                           <g class="notehead">
                              <use xlink:href="#E0A4-l19nj5e9" transform="translate(7081, 590) scale(0.54, 0.54)" />
                           </g>
                           <g id="r3ruo0a" class="stem">
                              <path d="M7241 569 L7241 158" stroke-width="18" />
                           </g>
                           <g id="ndvl5ld" class="artic">
                              <use xlink:href="#E4A3-l19nj5e9" transform="translate(7140, 835) scale(0.54, 0.54)" />
                           </g>
                        </g>
                     </g>
                  </g>
               </g>
               <g id="v6sh6uc" class="staff">
                  <path d="M1510 2570 L7344 2570" stroke-width="13" />
                  <path d="M1510 2750 L7344 2750" stroke-width="13" />
                  <path d="M1510 2930 L7344 2930" stroke-width="13" />
                  <path d="M1510 3110 L7344 3110" stroke-width="13" />
                  <path d="M1510 3290 L7344 3290" stroke-width="13" />
                  <g id="w107enjf" class="clef">
                     <use xlink:href="#E062-l19nj5e9" transform="translate(1627, 2750) scale(0.72, 0.72)" />
                  </g>
                  <g id="x92ki5" class="keySig">
                     <g id="yovh4x0" class="keyAccid">
                        <use xlink:href="#E262-l19nj5e9" transform="translate(2308, 2750) scale(0.72, 0.72)" />
                     </g>
                     <g id="z16qel68" class="keyAccid">
                        <use xlink:href="#E262-l19nj5e9" transform="translate(2486, 3020) scale(0.72, 0.72)" />
                     </g>
                     <g id="a1kbpm1b" class="keyAccid">
                        <use xlink:href="#E262-l19nj5e9" transform="translate(2664, 2660) scale(0.72, 0.72)" />
                     </g>
                     <g id="bk7qqvr" class="keyAccid">
                        <use xlink:href="#E262-l19nj5e9" transform="translate(2842, 2930) scale(0.72, 0.72)" />
                     </g>
                  </g>
                  <g id="c12xqycv" class="meterSig">
                     <use xlink:href="#E08A-l19nj5e9" transform="translate(3163, 2930) scale(0.72, 0.72)" />
                  </g>
                  <g class="ledgerLines above">
                     <path d="M4583 2390 L4905 2390" stroke-width="22" />
                     <path d="M5033 2390 L5355 2390" stroke-width="22" />
                     <path d="M6383 2390 L6705 2390" stroke-width="22" />
                     <path d="M6833 2390 L7155 2390" stroke-width="22" />
                     <path d="M4583 2210 L4905 2210" stroke-width="22" />
                  </g>
                  <g id="o1nwbnw5" class="layer">
                     <g id="p1r78e3w" class="beam">
                        <polygon stroke-opacity="1" fill-opacity="1" points="3731,3560 5099,3200 5099,3110 3731,3470" />
                        <g id="qjepdrb" class="note">
                           <g class="notehead">
                              <use xlink:href="#E0A4-l19nj5e9" transform="translate(3731, 3020) scale(0.72, 0.72)" />
                           </g>
                           <g id="s2cpl9z" class="stem">
                              <path d="M3740 3048 L3740 3542" stroke-width="18" />
                           </g>
                           <g id="r1y47wy7" class="accid" />
                        </g>
                        <g id="sqqgytg" class="note">
                           <g class="notehead">
                              <use xlink:href="#E0A4-l19nj5e9" transform="translate(4181, 2660) scale(0.72, 0.72)" />
                           </g>
                           <g id="t12l1c7g" class="stem">
                              <path d="M4190 2688 L4190 3422" stroke-width="18" />
                           </g>
                           <g id="tmeaduc" class="accid" />
                        </g>
                        <g id="u4oqxce" class="note">
                           <g class="notehead">
                              <use xlink:href="#E0A4-l19nj5e9" transform="translate(4631, 2210) scale(0.72, 0.72)" />
                           </g>
                           <g id="u19knp2v" class="stem">
                              <path d="M4640 2238 L4640 3302" stroke-width="18" />
                           </g>
                        </g>
                        <g id="v1bpmbr1" class="note">
                           <g class="notehead">
                              <use xlink:href="#E0A4-l19nj5e9" transform="translate(5081, 2390) scale(0.72, 0.72)" />
                           </g>
                           <g id="v1gxitk" class="stem">
                              <path d="M5090 2418 L5090 3182" stroke-width="18" />
                           </g>
                           <g id="w1m11mph" class="accid" />
                        </g>
                     </g>
                     <g id="x1oxd4nf" class="beam">
                        <polygon stroke-opacity="1" fill-opacity="1" points="5531,3560 6899,3200 6899,3110 5531,3470" />
                        <g id="y23h8om" class="note">
                           <g class="notehead">
                              <use xlink:href="#E0A4-l19nj5e9" transform="translate(5531, 3020) scale(0.72, 0.72)" />
                           </g>
                           <g id="w1905d68" class="stem">
                              <path d="M5540 3048 L5540 3542" stroke-width="18" />
                           </g>
                           <g id="z16wv72r" class="accid" />
                        </g>
                        <g id="a1n0fw13" class="note">
                           <g class="notehead">
                              <use xlink:href="#E0A4-l19nj5e9" transform="translate(5981, 2570) scale(0.72, 0.72)" />
                           </g>
                           <g id="xz5i2aa" class="stem">
                              <path d="M5990 2598 L5990 3422" stroke-width="18" />
                           </g>
                        </g>
                        <g id="b13viyd2" class="note">
                           <g class="notehead">
                              <use xlink:href="#E0A4-l19nj5e9" transform="translate(6431, 2300) scale(0.72, 0.72)" />
                           </g>
                           <g id="y17jmr1w" class="stem">
                              <path d="M6440 2328 L6440 3302" stroke-width="18" />
                           </g>
                           <g id="c1yevvwh" class="accid" />
                        </g>
                        <g id="d1sqgsul" class="note">
                           <g class="notehead">
                              <use xlink:href="#E0A4-l19nj5e9" transform="translate(6881, 2390) scale(0.72, 0.72)" />
                           </g>
                           <g id="z11huxwv" class="stem">
                              <path d="M6890 2418 L6890 3182" stroke-width="18" />
                           </g>
                           <g id="e11rutd2" class="accid" />
                        </g>
                     </g>
                  </g>
               </g>
               <g id="b37hn12" class="trill">
                  <use xlink:href="#E566-l19nj5e9" transform="translate(5488, 626) scale(0.72, 0.72)" />
               </g>
               <g id="ewtw03u" class="slur">
                  <path d="M6457,1156 C6710,1305 7260,1246 7486,1043 C7288,1302 6694,1365 6457,1156" stroke-linecap="round" stroke-linejoin="round" stroke-width="9" />
               </g>
               <g id="t3elz0m" class="barLine">
                  <path d="M7331 770 L7331 1490" stroke-width="27" />
                  <path d="M7331 2570 L7331 3290" stroke-width="27" />
                  <path d="M7331 1490 L7331 2570" stroke-width="27" />
               </g>
            </g>
            <g id="fwigvp2" class="measure">
               <g id="o1hn97h8" class="staff">
                  <path d="M7344 770 L11299 770" stroke-width="13" />
                  <path d="M7344 950 L11299 950" stroke-width="13" />
                  <path d="M7344 1130 L11299 1130" stroke-width="13" />
                  <path d="M7344 1310 L11299 1310" stroke-width="13" />
                  <path d="M7344 1490 L11299 1490" stroke-width="13" />
                  <g class="ledgerLines above">
                     <path d="M10176 590 L10498 590" stroke-width="22" />
                     <path d="M10176 410 L10498 410" stroke-width="22" />
                  </g>
                  <g id="q14fmeoc" class="layer">
                     <g id="rivwb27" class="note">
                        <g class="notehead">
                           <use xlink:href="#E0A3-l19nj5e9" transform="translate(7524, 680) scale(0.72, 0.72)" />
                        </g>
                        <g id="anr4k48" class="stem">
                           <path d="M7533 705 L7533 1310" stroke-width="18" />
                        </g>
                        <g id="s1f31sgl" class="accid" />
                     </g>
                     <g id="t1ajik95" class="note">
                        <g class="notehead">
                           <use xlink:href="#E0A4-l19nj5e9" transform="translate(9324, 1040) scale(0.72, 0.72)" />
                        </g>
                        <g id="b1m8zn17" class="stem">
                           <path d="M9333 1068 L9333 1670" stroke-width="18" />
                        </g>
                        <g id="u6oscn4" class="accid" />
                     </g>
                     <g id="vyt4ad" class="note">
                        <g class="notehead">
                           <use xlink:href="#E0A4-l19nj5e9" transform="translate(10224, 410) scale(0.72, 0.72)" />
                        </g>
                        <g id="csdt8x1" class="stem">
                           <path d="M10233 438 L10233 1130" stroke-width="18" />
                        </g>
                        <g id="w19obtds" class="accid" />
                     </g>
                  </g>
               </g>
               <g id="pmwmthe" class="staff">
                  <path d="M7344 2570 L11299 2570" stroke-width="13" />
                  <path d="M7344 2750 L11299 2750" stroke-width="13" />
                  <path d="M7344 2930 L11299 2930" stroke-width="13" />
                  <path d="M7344 3110 L11299 3110" stroke-width="13" />
                  <path d="M7344 3290 L11299 3290" stroke-width="13" />
                  <g class="ledgerLines above">
                     <path d="M8376 2390 L8698 2390" stroke-width="22" />
                     <path d="M8826 2390 L9148 2390" stroke-width="22" />
                     <path d="M10176 2390 L10498 2390" stroke-width="22" />
                     <path d="M10626 2390 L10948 2390" stroke-width="22" />
                     <path d="M8376 2210 L8698 2210" stroke-width="22" />
                     <path d="M10176 2210 L10498 2210" stroke-width="22" />
                  </g>
                  <g id="z4bj489" class="layer">
                     <g id="a1tqy1kq" class="beam">
                        <polygon stroke-opacity="1" fill-opacity="1" points="7524,3560 8892,3200 8892,3110 7524,3470" />
                        <g id="bb8g0u0" class="note">
                           <g class="notehead">
                              <use xlink:href="#E0A4-l19nj5e9" transform="translate(7524, 3020) scale(0.72, 0.72)" />
                           </g>
                           <g id="d10jcx5a" class="stem">
                              <path d="M7533 3048 L7533 3542" stroke-width="18" />
                           </g>
                           <g id="cfjak8c" class="accid" />
                        </g>
                        <g id="d16zdwlv" class="note">
                           <g class="notehead">
                              <use xlink:href="#E0A4-l19nj5e9" transform="translate(7974, 2660) scale(0.72, 0.72)" />
                           </g>
                           <g id="ea7j3uy" class="stem">
                              <path d="M7983 2688 L7983 3422" stroke-width="18" />
                           </g>
                           <g id="e11izfdo" class="accid" />
                        </g>
                        <g id="fqn9gl2" class="note">
                           <g class="notehead">
                              <use xlink:href="#E0A4-l19nj5e9" transform="translate(8424, 2210) scale(0.72, 0.72)" />
                           </g>
                           <g id="fuiaea7" class="stem">
                              <path d="M8433 2238 L8433 3302" stroke-width="18" />
                           </g>
                        </g>
                        <g id="goma0gm" class="note">
                           <g class="notehead">
                              <use xlink:href="#E0A4-l19nj5e9" transform="translate(8874, 2390) scale(0.72, 0.72)" />
                           </g>
                           <g id="gxzwqqc" class="stem">
                              <path d="M8883 2418 L8883 3182" stroke-width="18" />
                           </g>
                           <g id="h1a2rmes" class="accid" />
                        </g>
                     </g>
                     <g id="i4vs11m" class="beam">
                        <polygon stroke-opacity="1" fill-opacity="1" points="9324,3560 10692,3200 10692,3110 9324,3470" />
                        <g id="j1s8kxne" class="note">
                           <g class="notehead">
                              <use xlink:href="#E0A4-l19nj5e9" transform="translate(9324, 3020) scale(0.72, 0.72)" />
                           </g>
                           <g id="h3i55up" class="stem">
                              <path d="M9333 3048 L9333 3542" stroke-width="18" />
                           </g>
                           <g id="k19a056m" class="accid" />
                        </g>
                        <g id="l1e7ub62" class="note">
                           <g class="notehead">
                              <use xlink:href="#E0A4-l19nj5e9" transform="translate(9774, 2660) scale(0.72, 0.72)" />
                           </g>
                           <g id="i12zs17z" class="stem">
                              <path d="M9783 2688 L9783 3422" stroke-width="18" />
                           </g>
                           <g id="mlwp7zq" class="accid" />
                        </g>
                        <g id="nt9ronl" class="note">
                           <g class="notehead">
                              <use xlink:href="#E0A4-l19nj5e9" transform="translate(10224, 2210) scale(0.72, 0.72)" />
                           </g>
                           <g id="j1rmtrje" class="stem">
                              <path d="M10233 2238 L10233 3302" stroke-width="18" />
                           </g>
                        </g>
                        <g id="o1awc8ol" class="note">
                           <g class="notehead">
                              <use xlink:href="#E0A4-l19nj5e9" transform="translate(10674, 2390) scale(0.72, 0.72)" />
                           </g>
                           <g id="kjeoxmv" class="stem">
                              <path d="M10683 2418 L10683 3182" stroke-width="18" />
                           </g>
                           <g id="p1ufntge" class="accid" />
                        </g>
                     </g>
                  </g>
               </g>
               <g id="xm40ctx" class="fing">
                  <text x="10337" y="204" text-anchor="middle" font-size="0px">
                     <tspan id="yvzjjlx" class="text">
                        <tspan font-size="303px">1</tspan>
                     </tspan>
                  </text>
               </g>
               <g id="n1p91bt0" class="barLine">
                  <path d="M11124 770 L11124 1490" stroke-width="27" />
                  <path d="M11254 770 L11254 1490" stroke-width="90" />
                  <path d="M11124 2570 L11124 3290" stroke-width="27" />
                  <path d="M11254 2570 L11254 3290" stroke-width="90" />
                  <path d="M11124 1490 L11124 2570" stroke-width="27" />
                  <path d="M11254 1490 L11254 2570" stroke-width="90" />
               </g>
            </g>
            <g id="xpk0tft" class="systemMilestoneEnd yhbsl03" />
         </g>
         <g id="y1ccvmbx" class="pageMilestoneEnd wtn72u" />
         <g id="z1onwf8y" class="pageMilestoneEnd v3bpgbh" />
      </g>
   </svg>
</svg>
